<svg xmlns="http://www.w3.org/2000/svg" viewBox="0 0 97.31 59.47"><defs><style>.cls-1{fill-rule:evenodd;}</style></defs><g id="Layer_2" data-name="Layer 2"><g id="Layer_1-2" data-name="Layer 1"><path id="Behance" class="cls-1" d="M62.18,9.92H88V2.7H62.18V9.92Zm6.1,15.76a11.51,11.51,0,0,0-3.1,6.64h20a9.34,9.34,0,0,0-3.1-6.79,10.46,10.46,0,0,0-6.91-2.3,9.42,9.42,0,0,0-6.94,2.45ZM85.68,16a17.93,17.93,0,0,1,7.68,6.35,20.58,20.58,0,0,1,3.55,8.87,54,54,0,0,1,.39,8.52H64.9c.19,4.3,1.73,7.32,4.66,9.05A12.15,12.15,0,0,0,76,50.38a10.1,10.1,0,0,0,6.45-2,9.27,9.27,0,0,0,2.39-3H96.69q-.48,3.81-4.31,7.76-6,6.26-16.73,6.25A24.75,24.75,0,0,1,60,54.2C55.45,50.68,53.2,45,53.2,37q0-11.15,6.12-17.1t15.9-6a26.12,26.12,0,0,1,10.46,2ZM12,32.47V47.94h14.6a14.67,14.67,0,0,0,6.09-1c2.64-1.27,4-3.67,4-7.24a6.23,6.23,0,0,0-3.82-6.23,15.66,15.66,0,0,0-6-1Zm0-22.4v12.8H26.61A12.45,12.45,0,0,0,33,21.43q2.45-1.44,2.45-5.09c0-2.71-1.08-4.49-3.23-5.36a23.64,23.64,0,0,0-7.11-.91ZM44.64,6.18A14.41,14.41,0,0,1,47.4,15a12.61,12.61,0,0,1-2.78,8.54A14.37,14.37,0,0,1,40,26.88,13.44,13.44,0,0,1,47,32a14.94,14.94,0,0,1,2.34,8.5,16.46,16.46,0,0,1-2.68,9.25,16.16,16.16,0,0,1-4.26,4.57,16.76,16.76,0,0,1-6.79,2.91A42.71,42.71,0,0,1,27.1,58H0V0H29.06q11,.15,15.58,6.18Z"/></g></g></svg>