<svg xmlns="http://www.w3.org/2000/svg" viewBox="0 0 72.87 69.78"><defs><style>.cls-1{fill-rule:evenodd;}</style></defs><g id="Layer_2" data-name="Layer 2"><g id="Layer_1-2" data-name="Layer 1"><path id="Github" class="cls-1" d="M36.43,0C16.31,0,0,16,0,35.77A35.84,35.84,0,0,0,24.92,69.71c1.82.33,2.49-.77,2.49-1.72s0-3.1-.05-6.08c-10.14,2.16-12.28-4.8-12.28-4.8-1.65-4.13-4-5.23-4-5.23-3.31-2.22.25-2.18.25-2.18,3.65.26,5.58,3.69,5.58,3.69,3.25,5.47,8.53,3.89,10.6,3a7.58,7.58,0,0,1,2.32-4.78c-8.09-.9-16.6-4-16.6-17.68a13.7,13.7,0,0,1,3.75-9.6,12.57,12.57,0,0,1,.36-9.46s3.06-1,10,3.66a35.26,35.26,0,0,1,18.24,0c7-4.63,10-3.66,10-3.66a12.57,12.57,0,0,1,.36,9.46,13.66,13.66,0,0,1,3.75,9.6c0,13.74-8.52,16.77-16.64,17.65,1.31,1.11,2.48,3.29,2.48,6.63,0,4.78-.05,8.64-.05,9.81,0,1,.66,2.07,2.5,1.72a35.85,35.85,0,0,0,24.9-33.94C72.87,16,56.56,0,36.43,0"/></g></g></svg>