<svg xmlns="http://www.w3.org/2000/svg" viewBox="0 0 73.96 65.75"><defs><style>.cls-1{fill-rule:evenodd;}</style></defs><g id="Layer_2" data-name="Layer 2"><g id="Layer_1-2" data-name="Layer 1"><path id="LinkedIn" class="cls-1" d="M74,65.75H57.61V42.63c0-6.05-2.55-10.18-8.18-10.18a8.22,8.22,0,0,0-7.8,5.48,9.88,9.88,0,0,0-.35,3.65V65.75H25.08s.21-40.94,0-44.67h16.2v7c.95-3.06,6.13-7.44,14.38-7.44,10.25,0,18.3,6.43,18.3,20.26V65.75ZM8.71,15.5H8.6C3.38,15.5,0,12.08,0,7.75S3.48,0,8.81,0s8.58,3.33,8.69,7.74S14.12,15.5,8.71,15.5ZM1.87,21.08H16.28V65.75H1.87V21.08Z"/></g></g></svg>