<svg xmlns="http://www.w3.org/2000/svg" xmlns:xlink="http://www.w3.org/1999/xlink" width="86" height="85" viewBox="0 0 86 85">
  <defs>
    <style>
      .cls-1 {
        fill: #feba70;
      }

      .cls-2 {
        fill: #fff;
      }

      .cls-3 {
        filter: url(#Path_337);
      }
    </style>
    <filter id="Path_337" x="0" y="0" width="86" height="85" filterUnits="userSpaceOnUse">
      <feOffset dy="-2" input="SourceAlpha"/>
      <feGaussianBlur stdDeviation="2.5" result="blur"/>
      <feFlood flood-color="#3b3b3b" flood-opacity="0.129"/>
      <feComposite operator="in" in2="blur"/>
      <feComposite in="SourceGraphic"/>
    </filter>
  </defs>
  <g id="behance_icon_1" data-name="behance icon 1" transform="translate(7.5 9.5)">
    <g class="cls-3" transform="matrix(1, 0, 0, 1, -7.5, -9.5)">
      <path id="Path_337-2" data-name="Path 337" class="cls-1" d="M2,0H69a2,2,0,0,1,2,2V68a2,2,0,0,1-2,2H2a2,2,0,0,1-2-2V2A2,2,0,0,1,2,0Z" transform="translate(7.5 9.5)"/>
    </g>
    <path id="Path_332" data-name="Path 332" class="cls-2" d="M904.231,151.459a7.651,7.651,0,0,1,1.246,4.444,8.163,8.163,0,0,1-1.424,4.717,8.584,8.584,0,0,1-2.313,2.361,8.978,8.978,0,0,1-3.648,1.481,25.281,25.281,0,0,1-4.538.383H879.02V135h15.542q5.931.111,8.364,3.182a7.133,7.133,0,0,1,1.483,4.581,6.272,6.272,0,0,1-1.483,4.362,7.636,7.636,0,0,1-2.432,1.7A7.029,7.029,0,0,1,904.231,151.459Zm-17.8-4.717h6.822A6.962,6.962,0,0,0,896.7,146,2.741,2.741,0,0,0,898,143.4a2.64,2.64,0,0,0-1.72-2.743,12.831,12.831,0,0,0-3.856-.494h-5.991v6.584Zm12.22,8.667a3.179,3.179,0,0,0-2.076-3.181,8.241,8.241,0,0,0-3.2-.494h-6.941v7.955h6.822a7.694,7.694,0,0,0,3.263-.547A3.728,3.728,0,0,0,898.655,155.409Zm32.033-4.828a24.869,24.869,0,0,1,.178,4.225H914.079a4.926,4.926,0,0,0,2.373,4.5,6.443,6.443,0,0,0,3.381.824,5.355,5.355,0,0,0,3.322-.988,4.18,4.18,0,0,0,1.246-1.481h6.169a6.812,6.812,0,0,1-2.254,3.9q-3.086,3.127-8.72,3.126a13.177,13.177,0,0,1-8.1-2.633q-3.531-2.631-3.53-8.557,0-5.6,3.174-8.559a11.636,11.636,0,0,1,8.275-2.963,14.165,14.165,0,0,1,5.428.988,9.251,9.251,0,0,1,4,3.182A10.107,10.107,0,0,1,930.689,150.581Zm-4.805-11.357H912.833v-3.018h13.051Zm-1.246,11.905a4.567,4.567,0,0,0-1.631-3.4,5.59,5.59,0,0,0-3.589-1.152,4.952,4.952,0,0,0-3.589,1.233,5.834,5.834,0,0,0-1.631,3.319Z" transform="translate(-868.916 -115.004)"/>
  </g>
</svg>
