<svg xmlns="http://www.w3.org/2000/svg" width="24.205" height="26.659" viewBox="0 0 24.205 26.659"><defs><style>.a{fill:#416b8b;}</style></defs><path class="a" d="M23.933,9.119,22.721,10.33a5.558,5.558,0,0,1,0,7.876l1.212,1.212a6.972,6.972,0,0,0,0-10.3Zm-2.545,2.545-1.212,1.212a2.364,2.364,0,0,1,0,2.787l1.212,1.212A3.656,3.656,0,0,0,21.388,11.663ZM16.541,1H4.424A2.431,2.431,0,0,0,2,3.424V25.235a2.431,2.431,0,0,0,2.424,2.424H16.541a2.431,2.431,0,0,0,2.424-2.424V3.424A2.431,2.431,0,0,0,16.541,1Zm0,23.023H4.424V4.635H16.541Z" transform="translate(-2 -1)"/></svg>