<svg xmlns="http://www.w3.org/2000/svg" width="50.99" height="51.284" viewBox="0 0 50.99 51.284" style="cursor:pointer;">
  <g id="linkIN_icon1" data-name="linkIN icon1" transform="translate(9.514 -2.607)">
    <rect id="Rectangle_34" data-name="Rectangle 34" width="48.207" height="49.284" rx="2" transform="translate(-9.134 3.176)" fill="#fff"/>
    <path id="Path_259" data-name="Path 259" d="M854.53,633.073a3.725,3.725,0,0,1,2.7,1.083,3.517,3.517,0,0,1,1.113,2.608v43.957a3.416,3.416,0,0,1-1.113,2.579,3.709,3.709,0,0,1-2.637,1.056H811.1a3.7,3.7,0,0,1-2.638-1.056,3.411,3.411,0,0,1-1.113-2.579V636.764a3.511,3.511,0,0,1,1.113-2.608,3.723,3.723,0,0,1,2.7-1.083H854.53Zm-32.411,15.5a4.1,4.1,0,0,0,0-5.744,4.26,4.26,0,0,0-3.106-1.142,4.366,4.366,0,0,0-3.136,1.142,3.8,3.8,0,0,0-1.2,2.872,3.84,3.84,0,0,0,1.172,2.872,4.175,4.175,0,0,0,3.048,1.143h.059A4.329,4.329,0,0,0,822.119,648.574Zm.7,4.309h-7.678v23.151h7.678Zm27.722,9.846q0-5.1-2.52-7.852a9.1,9.1,0,0,0-10.96-1.232,9.076,9.076,0,0,0-2.286,2.522v-3.282H827.1q.057,1.347,0,12.367v10.783h7.678V663.081a5.756,5.756,0,0,1,.234-1.876,4.667,4.667,0,0,1,1.407-1.933,3.892,3.892,0,0,1,2.579-.881,3.378,3.378,0,0,1,2.989,1.465,6.835,6.835,0,0,1,.879,3.752v12.424h7.678Z" transform="translate(-816.863 -630.466)" fill=" #1a4261"/>
  </g>
</svg>
