<svg id="messenger_icon_1" data-name="messenger icon 1" xmlns="http://www.w3.org/2000/svg" width="50.115" height="51.284" viewBox="0 0 50.115 51.284" style="cursor:pointer;">
  <path id="Path_335" data-name="Path 335" d="M2.864,0H47.251a2.856,2.856,0,0,1,2.864,2.849V48.435a2.856,2.856,0,0,1-2.864,2.849H2.864A2.856,2.856,0,0,1,0,48.435V2.849A2.856,2.856,0,0,1,2.864,0Z" fill="#0e76a8 "/>
  <g id="Group_130" data-name="Group 130" transform="translate(4 4)">
    
    <path xmlns="http://www.w3.org/2000/svg" id="Path_238" data-name="Path 238" d="M1044.7,345.946a22.108,22.108,0,0,1,10.751,2.7,20.331,20.331,0,0,1,7.658,7.129,18.551,18.551,0,0,1,2.945,10.079,18.32,18.32,0,0,1-2.945,10.029,19.832,19.832,0,0,1-7.658,7.129,21.786,21.786,0,0,1-10.751,2.753,22.731,22.731,0,0,1-6.136-.836l-7.265,4.03v-7.619a20.538,20.538,0,0,1-5.793-6.786,18.31,18.31,0,0,1-2.161-8.7,18.559,18.559,0,0,1,2.946-10.079,20.347,20.347,0,0,1,7.658-7.129,22.517,22.517,0,0,1,10.75-2.753v.05Zm13.795,14.307-10.458,5.851-5.6-5.851-11.684,12.488,10.654-5.851,5.4,5.851Z" transform="translate(-1023.349 -345.896)" fill="#fff"/>
  </g>
</svg>